<svg width="32" height="32" viewBox="0 0 32 32" fill="none" xmlns="http://www.w3.org/2000/svg">
<path d="M0 16C0 7.16344 7.16344 0 16 0C24.8366 0 32 7.16344 32 16C32 24.8366 24.8366 32 16 32C7.16344 32 0 24.8366 0 16Z" fill="#FAFAFA"/>
<path d="M14.1 8.5H17.9V11.3125H14.1V8.5Z" fill="#0000FF"/>
<path d="M17.9 19.75H14.1V23.5H10.9333V19.75C10.9333 18.0241 12.3511 16.625 14.1 16.625H17.9C19.6489 16.625 21.0667 18.0241 21.0667 19.75V23.5H17.9V19.75ZM22.3333 15.375H9.66667V19.75H6.5V15.375C6.5 13.6491 7.91776 12.25 9.66667 12.25H22.3333L22.4151 12.2511C24.1262 12.2939 25.5 13.6761 25.5 15.375V19.75H22.3333V15.375Z" fill="#0000FF"/>
</svg>
