<svg width="28" height="28" viewBox="0 0 28 28" fill="none" xmlns="http://www.w3.org/2000/svg">
<path d="M0 14C0 6.26801 6.26801 0 14 0C21.732 0 28 6.26801 28 14C28 21.732 21.732 28 14 28C6.26801 28 0 21.732 0 14Z" fill="white"/>
<mask id="mask0_75_1828" style="mask-type:luminance" maskUnits="userSpaceOnUse" x="2" y="2" width="24" height="24">
<path d="M25.9995 2.01172H2.02295V25.9883H25.9995V2.01172Z" fill="white"/>
</mask>
<g mask="url(#mask0_75_1828)">
<path d="M22.1836 22.4082L18.1354 21.2028L15.0825 23.0278L12.9525 23.0269L9.89787 21.2028L5.85147 22.4082L4.62061 18.2531L5.85147 13.6415L4.62061 9.74247L5.85147 4.91016L12.1743 8.68773H15.8607L22.1836 4.91016L23.4144 9.74247L22.1836 13.6415L23.4144 18.2531L22.1836 22.4082Z" fill="#FF5C16"/>
<path d="M5.85254 4.91016L12.1754 8.69038L11.9239 11.2847L5.85254 4.91016Z" fill="#FF5C16"/>
<path d="M9.89893 18.2539L12.6809 20.3731L9.89893 21.2019V18.2539Z" fill="#FF5C16"/>
<path d="M12.4586 14.7498L11.9239 11.2852L8.50129 13.641L8.49951 13.6402V13.6419L8.5101 16.0669L9.89802 14.7498H9.89891H12.4586Z" fill="#FF5C16"/>
<path d="M22.1837 4.91016L15.8608 8.69038L16.1114 11.2847L22.1837 4.91016Z" fill="#FF5C16"/>
<path d="M18.137 18.2539L15.355 20.3731L18.137 21.2019V18.2539Z" fill="#FF5C16"/>
<path d="M19.5358 13.6419V13.6402L19.5349 13.641L16.1123 11.2852L15.5776 14.7498H18.1373L19.5261 16.0669L19.5358 13.6419Z" fill="#FF5C16"/>
<path d="M9.89787 21.2019L5.85147 22.4073L4.62061 18.2539H9.89787V21.2019Z" fill="#E34807"/>
<path d="M12.4576 14.75L13.2306 19.7587L12.1594 16.9738L8.5083 16.068L9.89712 14.75H12.4568H12.4576Z" fill="#E34807"/>
<path d="M18.1372 21.2019L22.1836 22.4073L23.4145 18.2539H18.1372V21.2019Z" fill="#E34807"/>
<path d="M15.5776 14.75L14.8047 19.7587L15.8759 16.9738L19.527 16.068L18.1373 14.75H15.5776Z" fill="#E34807"/>
<path d="M4.62061 18.2522L5.85147 13.6406H8.49849L8.50818 16.0665L12.1593 16.9724L13.2305 19.7572L12.6799 20.3706L9.89789 18.2513H4.62061V18.2522Z" fill="#FF8D5D"/>
<path d="M23.4146 18.2522L22.1837 13.6406H19.5367L19.527 16.0665L15.8759 16.9724L14.8047 19.7572L15.3553 20.3706L18.1373 18.2513H23.4146V18.2522Z" fill="#FF8D5D"/>
<path d="M15.8608 8.6875H14.0176H12.1744L11.9238 11.2818L13.2306 19.7552H14.8047L16.1123 11.2818L15.8608 8.6875Z" fill="#FF8D5D"/>
<path d="M5.85147 4.91016L4.62061 9.74247L5.85147 13.6415H8.49849L11.9229 11.2847L5.85147 4.91016Z" fill="#661800"/>
<path d="M11.6924 15.7548H10.4932L9.84033 16.3947L12.16 16.97L11.6924 15.7539V15.7548Z" fill="#661800"/>
<path d="M22.1837 4.91016L23.4146 9.74247L22.1837 13.6415H19.5367L16.1123 11.2847L22.1837 4.91016Z" fill="#661800"/>
<path d="M16.344 15.7548H17.5449L18.1978 16.3956L15.8755 16.9717L16.344 15.7539V15.7548Z" fill="#661800"/>
<path d="M15.0813 21.3747L15.3548 20.3731L14.8043 19.7598H13.2293L12.6787 20.3731L12.9522 21.3747" fill="#661800"/>
<path d="M15.0817 21.375V23.0289H12.9526V21.375H15.0817Z" fill="#C0C4CD"/>
<path d="M9.89893 21.1998L12.9545 23.0265V21.3727L12.6809 20.3711L9.89893 21.1998Z" fill="#E7EBF6"/>
<path d="M18.1371 21.1998L15.0815 23.0265V21.3727L15.3551 20.3711L18.1371 21.1998Z" fill="#E7EBF6"/>
</g>
</svg>
