<svg width="24" height="24" viewBox="0 0 24 24" fill="none" xmlns="http://www.w3.org/2000/svg">
<g opacity="0.2">
<path d="M3.0498 11.0001C3.2739 8.80013 4.30007 6.75968 5.93254 5.26803C7.56501 3.77639 9.6895 2.93795 11.9007 2.9127C14.1119 2.88744 16.255 3.67713 17.9211 5.1311C19.5872 6.58507 20.6597 8.60155 20.934 10.7958C21.2083 12.99 20.6651 15.2085 19.4082 17.0278C18.1512 18.8472 16.2684 20.1401 14.1191 20.6599C11.9697 21.1797 9.70421 20.89 7.7548 19.8461C5.80539 18.8022 4.30853 17.0772 3.5498 15.0001M3.0498 20.0001V15.0001H8.0498" stroke="#FAFAFA"/>
<path d="M12 15.5C12.2053 14.6513 12.6406 13.8755 13.2581 13.2581C13.8755 12.6406 14.6513 12.2053 15.5 12C14.6513 11.7947 13.8755 11.3594 13.2581 10.7419C12.6406 10.1245 12.2053 9.34874 12 8.5C11.7947 9.34874 11.3594 10.1245 10.7419 10.7419C10.1245 11.3594 9.34874 11.7947 8.5 12C9.34874 12.2053 10.1245 12.6406 10.7419 13.2581C11.3594 13.8755 11.7947 14.6513 12 15.5Z" fill="#FAFAFA" stroke="#FAFAFA" stroke-linecap="round"/>
</g>
</svg>
