<svg width="28" height="28" viewBox="0 0 28 28" fill="none" xmlns="http://www.w3.org/2000/svg">
<g clip-path="url(#clip0_84_1545)">
<path d="M14 28C21.732 28 28 21.732 28 14C28 6.26801 21.732 0 14 0C6.26801 0 0 6.26801 0 14C0 21.732 6.26801 28 14 28Z" fill="url(#paint0_linear_84_1545)"/>
<path fill-rule="evenodd" clip-rule="evenodd" d="M6.33719 13.852C10.4185 12.0738 13.14 10.9015 14.5017 10.3352C18.3896 8.71802 19.1975 8.43711 19.7241 8.42783C19.8399 8.42579 20.0988 8.4545 20.2666 8.5906C20.4082 8.70553 20.4472 8.86078 20.4658 8.96974C20.4845 9.0787 20.5077 9.32692 20.4892 9.52087C20.2785 11.7346 19.3669 17.1067 18.9031 19.5862C18.7069 20.6353 18.3204 20.9871 17.9463 21.0215C17.1333 21.0963 16.516 20.4842 15.7285 19.968C14.4963 19.1603 13.8002 18.6575 12.6042 17.8693C11.222 16.9585 12.118 16.4578 12.9057 15.6397C13.1119 15.4255 16.694 12.1673 16.7633 11.8717C16.772 11.8348 16.7801 11.697 16.6982 11.6242C16.6163 11.5515 16.4955 11.5763 16.4083 11.5961C16.2848 11.6242 14.3163 12.9252 10.5031 15.4993C9.94433 15.883 9.43825 16.0699 8.98482 16.0601C8.48494 16.0493 7.52339 15.7775 6.80857 15.5451C5.93182 15.2601 5.235 15.1094 5.29568 14.6254C5.32728 14.3733 5.67445 14.1155 6.33719 13.852Z" fill="white"/>
</g>
<defs>
<linearGradient id="paint0_linear_84_1545" x1="1400" y1="0" x2="1400" y2="2779.23" gradientUnits="userSpaceOnUse">
<stop stop-color="#2AABEE"/>
<stop offset="1" stop-color="#229ED9"/>
</linearGradient>
<clipPath id="clip0_84_1545">
<rect width="28" height="28" fill="white"/>
</clipPath>
</defs>
</svg>
