<svg width="28" height="28" viewBox="0 0 28 28" fill="none" xmlns="http://www.w3.org/2000/svg">
<path d="M28 14C28 6.26804 21.732 1.52588e-05 14 1.52588e-05C6.26802 1.52588e-05 0 6.26804 0 14C0 20.5657 4.52004 26.0748 10.6179 27.5877V18.2782H7.73102V14H10.6179V12.1565C10.6179 7.39139 12.7744 5.18276 17.4526 5.18276C18.3395 5.18276 19.87 5.35664 20.496 5.53057V9.40879C20.1656 9.37402 19.5917 9.3566 18.8787 9.3566C16.583 9.3566 15.6961 10.2262 15.6961 12.487V14H20.269L19.4834 18.2782H15.6961V27.8975C22.6281 27.0602 28 21.1578 28 14Z" fill="#0866FF"/>
<path d="M19.4838 18.2782L20.2694 14H15.6965V12.4869C15.6965 10.2261 16.5835 9.35661 18.8791 9.35661C19.5921 9.35661 20.166 9.37396 20.4965 9.40874V5.53058C19.8704 5.35664 18.34 5.1827 17.453 5.1827C12.7749 5.1827 10.6184 7.3914 10.6184 12.1565V14H7.73145V18.2782H10.6184V27.5877C11.7016 27.8564 12.8342 28 14.0004 28C14.5746 28 15.1405 27.9646 15.6965 27.8975V18.2782H19.4838Z" fill="white"/>
</svg>
