<svg width="28" height="28" viewBox="0 0 28 28" fill="none" xmlns="http://www.w3.org/2000/svg">
<g clip-path="url(#clip0_89_1283)">
<path d="M3.72505 23.5129C-3.31276 15.9001 0.0894607 3.48598 10.0046 0.586176C20.3217 -2.4312 29.981 6.6695 27.6485 17.1363C25.2151 28.0557 11.3516 31.7626 3.72505 23.5129ZM22.0037 6.19348C22.0314 6.07816 21.9582 6.05828 21.9034 5.98972C20.3009 3.98637 16.4313 2.70633 13.9376 2.7067C8.32476 2.70751 3.32233 6.99324 2.73941 12.6101H6.69365C6.86979 12.2086 6.92815 11.7384 7.08136 11.309C7.93067 8.92839 10.8797 6.19349 13.5206 6.19349L22.0037 6.19348ZM25.113 12.6101C25.055 11.8076 24.8383 10.9701 24.5734 10.2111C24.4712 9.91808 24.1915 9.15164 24.0245 8.93596C23.9572 8.84904 23.9159 8.81567 23.7988 8.8238L13.5856 8.82508C11.9382 8.98776 10.4189 9.96312 9.59893 11.3931C9.45742 11.6399 9.16284 12.2104 9.12001 12.4705C9.10579 12.5568 9.139 12.5568 9.19463 12.6101H25.113ZM6.69365 15.447H2.73941C3.18449 19.5882 6.17217 23.2395 10.0722 24.6341C14.2277 26.1201 18.9951 25.0977 22.0037 21.8643L14.062 21.863C10.7175 21.6185 8.03142 19.5452 6.97997 16.3766C6.92456 16.2097 6.77956 15.4746 6.69365 15.447ZM25.113 15.447H9.09324C9.71831 17.5971 11.6165 19.0826 13.8558 19.2322L23.9531 19.2184C24.5324 18.0396 25.0038 16.7674 25.113 15.447Z" fill="#FAFAFA"/>
</g>
<defs>
<clipPath id="clip0_89_1283">
<rect width="28" height="28" fill="white"/>
</clipPath>
</defs>
</svg>
